<svg xmlns="http://www.w3.org/2000/svg" width="320" height="320" viewBox="0 0 320 320">
<defs>
<radialGradient id="petal" cx="50%" cy="40%" r="60%">
  <stop offset="0%" stop-color="#ffffff" stop-opacity="0.95"/>
  <stop offset="60%" stop-color="#fff7fb" stop-opacity="0.9"/>
  <stop offset="100%" stop-color="#fbe2ec" stop-opacity="0.75"/>
</radialGradient>
</defs>
<g transform="translate(60 70) rotate(-12)">
  <path d="M 0.0 0.0 Q -5.2 -7.1 0.0 -16.0 Q 5.2 -7.1 0.0 0.0 Z" fill="url(#petal)" stroke="#f7e3ea" stroke-width="0.6"/>
  <path d="M 0.0 0.0 Q 5.2 -7.1 15.2 -4.9 Q 8.4 2.7 0.0 0.0 Z" fill="url(#petal)" stroke="#f7e3ea" stroke-width="0.6"/>
  <path d="M 0.0 0.0 Q 8.4 2.7 9.4 12.9 Q 0.0 8.8 0.0 0.0 Z" fill="url(#petal)" stroke="#f7e3ea" stroke-width="0.6"/>
  <path d="M 0.0 0.0 Q 0.0 8.8 -9.4 12.9 Q -8.4 2.7 0.0 0.0 Z" fill="url(#petal)" stroke="#f7e3ea" stroke-width="0.6"/>
  <path d="M 0.0 0.0 Q -8.4 2.7 -15.2 -4.9 Q -5.2 -7.1 0.0 0.0 Z" fill="url(#petal)" stroke="#f7e3ea" stroke-width="0.6"/>
  <circle cx="0" cy="0" r="2.9" fill="#f7c8b5" stroke="#e89a8c" stroke-width="0.5"/>
  <circle cx="-0.8" cy="-1.12" r="1.0" fill="#fff" opacity="0.6"/>
</g>
<g transform="translate(220 40) rotate(22)">
  <path d="M 0.0 0.0 Q -3.6 -4.9 0.0 -11.0 Q 3.6 -4.9 0.0 0.0 Z" fill="url(#petal)" stroke="#f7e3ea" stroke-width="0.6"/>
  <path d="M 0.0 0.0 Q 3.6 -4.9 10.5 -3.4 Q 5.8 1.9 0.0 0.0 Z" fill="url(#petal)" stroke="#f7e3ea" stroke-width="0.6"/>
  <path d="M 0.0 0.0 Q 5.8 1.9 6.5 8.9 Q 0.0 6.1 0.0 0.0 Z" fill="url(#petal)" stroke="#f7e3ea" stroke-width="0.6"/>
  <path d="M 0.0 0.0 Q 0.0 6.1 -6.5 8.9 Q -5.8 1.9 0.0 0.0 Z" fill="url(#petal)" stroke="#f7e3ea" stroke-width="0.6"/>
  <path d="M 0.0 0.0 Q -5.8 1.9 -10.5 -3.4 Q -3.6 -4.9 0.0 0.0 Z" fill="url(#petal)" stroke="#f7e3ea" stroke-width="0.6"/>
  <circle cx="0" cy="0" r="2.0" fill="#f7c8b5" stroke="#e89a8c" stroke-width="0.5"/>
  <circle cx="-0.55" cy="-0.77" r="0.7" fill="#fff" opacity="0.6"/>
</g>
<g transform="translate(160 200) rotate(55)">
  <path d="M 0.0 0.0 Q -4.5 -6.2 0.0 -14.0 Q 4.5 -6.2 0.0 0.0 Z" fill="url(#petal)" stroke="#f7e3ea" stroke-width="0.6"/>
  <path d="M 0.0 0.0 Q 4.5 -6.2 13.3 -4.3 Q 7.3 2.4 0.0 0.0 Z" fill="url(#petal)" stroke="#f7e3ea" stroke-width="0.6"/>
  <path d="M 0.0 0.0 Q 7.3 2.4 8.2 11.3 Q 0.0 7.7 0.0 0.0 Z" fill="url(#petal)" stroke="#f7e3ea" stroke-width="0.6"/>
  <path d="M 0.0 0.0 Q 0.0 7.7 -8.2 11.3 Q -7.3 2.4 0.0 0.0 Z" fill="url(#petal)" stroke="#f7e3ea" stroke-width="0.6"/>
  <path d="M 0.0 0.0 Q -7.3 2.4 -13.3 -4.3 Q -4.5 -6.2 0.0 0.0 Z" fill="url(#petal)" stroke="#f7e3ea" stroke-width="0.6"/>
  <circle cx="0" cy="0" r="2.5" fill="#f7c8b5" stroke="#e89a8c" stroke-width="0.5"/>
  <circle cx="-0.7000000000000001" cy="-0.9800000000000001" r="0.8" fill="#fff" opacity="0.6"/>
</g>
<g transform="translate(50 270) rotate(-40)">
  <path d="M 0.0 0.0 Q -2.9 -4.0 0.0 -9.0 Q 2.9 -4.0 0.0 0.0 Z" fill="url(#petal)" stroke="#f7e3ea" stroke-width="0.6"/>
  <path d="M 0.0 0.0 Q 2.9 -4.0 8.6 -2.8 Q 4.7 1.5 0.0 0.0 Z" fill="url(#petal)" stroke="#f7e3ea" stroke-width="0.6"/>
  <path d="M 0.0 0.0 Q 4.7 1.5 5.3 7.3 Q 0.0 5.0 0.0 0.0 Z" fill="url(#petal)" stroke="#f7e3ea" stroke-width="0.6"/>
  <path d="M 0.0 0.0 Q 0.0 5.0 -5.3 7.3 Q -4.7 1.5 0.0 0.0 Z" fill="url(#petal)" stroke="#f7e3ea" stroke-width="0.6"/>
  <path d="M 0.0 0.0 Q -4.7 1.5 -8.6 -2.8 Q -2.9 -4.0 0.0 0.0 Z" fill="url(#petal)" stroke="#f7e3ea" stroke-width="0.6"/>
  <circle cx="0" cy="0" r="1.6" fill="#f7c8b5" stroke="#e89a8c" stroke-width="0.5"/>
  <circle cx="-0.45" cy="-0.6300000000000001" r="0.5" fill="#fff" opacity="0.6"/>
</g>
<g transform="translate(280 250) rotate(-10)">
  <path d="M 0.0 0.0 Q -4.2 -5.8 0.0 -13.0 Q 4.2 -5.8 0.0 0.0 Z" fill="url(#petal)" stroke="#f7e3ea" stroke-width="0.6"/>
  <path d="M 0.0 0.0 Q 4.2 -5.8 12.4 -4.0 Q 6.8 2.2 0.0 0.0 Z" fill="url(#petal)" stroke="#f7e3ea" stroke-width="0.6"/>
  <path d="M 0.0 0.0 Q 6.8 2.2 7.6 10.5 Q 0.0 7.2 0.0 0.0 Z" fill="url(#petal)" stroke="#f7e3ea" stroke-width="0.6"/>
  <path d="M 0.0 0.0 Q 0.0 7.2 -7.6 10.5 Q -6.8 2.2 0.0 0.0 Z" fill="url(#petal)" stroke="#f7e3ea" stroke-width="0.6"/>
  <path d="M 0.0 0.0 Q -6.8 2.2 -12.4 -4.0 Q -4.2 -5.8 0.0 0.0 Z" fill="url(#petal)" stroke="#f7e3ea" stroke-width="0.6"/>
  <circle cx="0" cy="0" r="2.3" fill="#f7c8b5" stroke="#e89a8c" stroke-width="0.5"/>
  <circle cx="-0.65" cy="-0.9100000000000001" r="0.8" fill="#fff" opacity="0.6"/>
</g>
<g transform="translate(130 120) rotate(170)">
  <path d="M 0.0 0.0 Q -2.6 -3.6 0.0 -8.0 Q 2.6 -3.6 0.0 0.0 Z" fill="url(#petal)" stroke="#f7e3ea" stroke-width="0.6"/>
  <path d="M 0.0 0.0 Q 2.6 -3.6 7.6 -2.5 Q 4.2 1.4 0.0 0.0 Z" fill="url(#petal)" stroke="#f7e3ea" stroke-width="0.6"/>
  <path d="M 0.0 0.0 Q 4.2 1.4 4.7 6.5 Q 0.0 4.4 0.0 0.0 Z" fill="url(#petal)" stroke="#f7e3ea" stroke-width="0.6"/>
  <path d="M 0.0 0.0 Q 0.0 4.4 -4.7 6.5 Q -4.2 1.4 0.0 0.0 Z" fill="url(#petal)" stroke="#f7e3ea" stroke-width="0.6"/>
  <path d="M 0.0 0.0 Q -4.2 1.4 -7.6 -2.5 Q -2.6 -3.6 0.0 0.0 Z" fill="url(#petal)" stroke="#f7e3ea" stroke-width="0.6"/>
  <circle cx="0" cy="0" r="1.4" fill="#f7c8b5" stroke="#e89a8c" stroke-width="0.5"/>
  <circle cx="-0.4" cy="-0.56" r="0.5" fill="#fff" opacity="0.6"/>
</g>
<path transform="translate(290 110) rotate(30)" d="M 0 0 Q -3.5999999999999996 -1.7999999999999998 -6 0 Q -3.5999999999999996 1.7999999999999998 0 0 Z" fill="#fff" opacity="0.7"/>
<path transform="translate(40 200) rotate(-20)" d="M 0 0 Q -3.0 -1.5 -5 0 Q -3.0 1.5 0 0 Z" fill="#fff" opacity="0.7"/>
<path transform="translate(200 280) rotate(70)" d="M 0 0 Q -2.4 -1.2 -4 0 Q -2.4 1.2 0 0 Z" fill="#fff" opacity="0.7"/>
</svg>