<svg xmlns="http://www.w3.org/2000/svg" width="600" height="1200" viewBox="0 0 600 1200">
  <defs>
    <linearGradient id="vineG" x1="0%" y1="100%" x2="0%" y2="0%">
      <stop offset="0%" stop-color="#3d5a2e"/>
      <stop offset="50%" stop-color="#5e7e44"/>
      <stop offset="100%" stop-color="#4f6e3a"/>
    </linearGradient>
    <linearGradient id="vineG2" x1="0%" y1="100%" x2="0%" y2="0%">
      <stop offset="0%" stop-color="#43652c"/>
      <stop offset="100%" stop-color="#65824a"/>
    </linearGradient>
  </defs>

  <path d="M 260 1180 C 244.0 1152.0 200.0 1092.0 180 1040 C 160.0 988.0 150.0 962.0 160 920 C 170.0 878.0 202.0 868.0 230 830 C 258.0 792.0 296.0 774.0 300 730 C 304.0 686.0 268.0 660.0 250 610 C 232.0 560.0 206.0 530.0 210 480 C 214.0 430.0 248.0 408.0 270 360 C 292.0 312.0 292.0 282.0 320 240 C 348.0 198.0 378.0 184.0 410 150 C 442.0 116.0 466.0 86.0 480 70" fill="none" stroke="url(#vineG)" stroke-width="7" stroke-linecap="round"/>
  <path d="M 260 1180 C 244.0 1152.0 200.0 1092.0 180 1040 C 160.0 988.0 150.0 962.0 160 920 C 170.0 878.0 202.0 868.0 230 830 C 258.0 792.0 296.0 774.0 300 730 C 304.0 686.0 268.0 660.0 250 610 C 232.0 560.0 206.0 530.0 210 480 C 214.0 430.0 248.0 408.0 270 360 C 292.0 312.0 292.0 282.0 320 240 C 348.0 198.0 378.0 184.0 410 150 C 442.0 116.0 466.0 86.0 480 70" fill="none" stroke="#9bb97a" stroke-width="2.4" stroke-linecap="round" opacity="0.55"/>
  <path d="M 180 1040 C 166.0 1034.0 131.0 1034.0 110 1010 C 89.0 986.0 65.0 938.0 75 920 C 85.0 902.0 143.0 920.0 160 920" fill="none" stroke="url(#vineG2)" stroke-width="4" stroke-linecap="round" opacity="0.95"/>
  <path d="M 210 480 C 187.0 476.0 123.0 484.0 95 460 C 67.0 436.0 53.0 382.0 70 360 C 87.0 338.0 158.0 352.0 180 350" fill="none" stroke="url(#vineG2)" stroke-width="3.5" stroke-linecap="round" opacity="0.9"/>
  <path d="M 410 150 C 430.0 162.0 482.0 218.0 510 210 C 538.0 202.0 556.0 138.0 550 110 C 544.0 82.0 494.0 78.0 480 70" fill="none" stroke="url(#vineG2)" stroke-width="4" stroke-linecap="round" opacity="0.95"/>

    <g transform="translate(202 1040) rotate(-90)"><ellipse cx="0" cy="0" rx="22" ry="10" fill="#7ea05c" stroke="#4a6a32" stroke-width="1.5"/><path d="M -20.9 0 Q 0 -5.0 20.9 0" stroke="#3d5a2e" stroke-width="1.0" fill="none" opacity="0.7"/><path d="M -13.2 -2.0 Q -6.6 -5.0 -1.1 -3.0" stroke="#3d5a2e" stroke-width="0.6" fill="none" opacity="0.5"/><path d="M 1.1 -3.0 Q 8.8 -6.0 15.399999999999999 -1.0" stroke="#3d5a2e" stroke-width="0.6" fill="none" opacity="0.5"/></g>
  <g transform="translate(138 920) rotate(-49)"><ellipse cx="0" cy="0" rx="27" ry="12" fill="#94b574" stroke="#4a6a32" stroke-width="1.5"/><path d="M -25.65 0 Q 0 -6.0 25.65 0" stroke="#3d5a2e" stroke-width="1.0" fill="none" opacity="0.7"/><path d="M -16.2 -2.4000000000000004 Q -8.1 -6.0 -1.35 -3.5999999999999996" stroke="#3d5a2e" stroke-width="0.6" fill="none" opacity="0.5"/><path d="M 1.35 -3.5999999999999996 Q 10.8 -7.199999999999999 18.9 -1.2000000000000002" stroke="#3d5a2e" stroke-width="0.6" fill="none" opacity="0.5"/></g>
  <g transform="translate(252 830) rotate(-8)"><ellipse cx="0" cy="0" rx="32" ry="10" fill="#7ea05c" stroke="#4a6a32" stroke-width="1.5"/><path d="M -30.4 0 Q 0 -5.0 30.4 0" stroke="#3d5a2e" stroke-width="1.0" fill="none" opacity="0.7"/><path d="M -19.2 -2.0 Q -9.6 -5.0 -1.6 -3.0" stroke="#3d5a2e" stroke-width="0.6" fill="none" opacity="0.5"/><path d="M 1.6 -3.0 Q 12.8 -6.0 22.4 -1.0" stroke="#3d5a2e" stroke-width="0.6" fill="none" opacity="0.5"/></g>
  <g transform="translate(278 730) rotate(33)"><ellipse cx="0" cy="0" rx="22" ry="12" fill="#94b574" stroke="#4a6a32" stroke-width="1.5"/><path d="M -20.9 0 Q 0 -6.0 20.9 0" stroke="#3d5a2e" stroke-width="1.0" fill="none" opacity="0.7"/><path d="M -13.2 -2.4000000000000004 Q -6.6 -6.0 -1.1 -3.5999999999999996" stroke="#3d5a2e" stroke-width="0.6" fill="none" opacity="0.5"/><path d="M 1.1 -3.5999999999999996 Q 8.8 -7.199999999999999 15.399999999999999 -1.2000000000000002" stroke="#3d5a2e" stroke-width="0.6" fill="none" opacity="0.5"/></g>
  <g transform="translate(272 610) rotate(74)"><ellipse cx="0" cy="0" rx="27" ry="10" fill="#7ea05c" stroke="#4a6a32" stroke-width="1.5"/><path d="M -25.65 0 Q 0 -5.0 25.65 0" stroke="#3d5a2e" stroke-width="1.0" fill="none" opacity="0.7"/><path d="M -16.2 -2.0 Q -8.1 -5.0 -1.35 -3.0" stroke="#3d5a2e" stroke-width="0.6" fill="none" opacity="0.5"/><path d="M 1.35 -3.0 Q 10.8 -6.0 18.9 -1.0" stroke="#3d5a2e" stroke-width="0.6" fill="none" opacity="0.5"/></g>
  <g transform="translate(188 480) rotate(-65)"><ellipse cx="0" cy="0" rx="32" ry="12" fill="#94b574" stroke="#4a6a32" stroke-width="1.5"/><path d="M -30.4 0 Q 0 -6.0 30.4 0" stroke="#3d5a2e" stroke-width="1.0" fill="none" opacity="0.7"/><path d="M -19.2 -2.4000000000000004 Q -9.6 -6.0 -1.6 -3.5999999999999996" stroke="#3d5a2e" stroke-width="0.6" fill="none" opacity="0.5"/><path d="M 1.6 -3.5999999999999996 Q 12.8 -7.199999999999999 22.4 -1.2000000000000002" stroke="#3d5a2e" stroke-width="0.6" fill="none" opacity="0.5"/></g>
  <g transform="translate(292 360) rotate(-24)"><ellipse cx="0" cy="0" rx="22" ry="10" fill="#7ea05c" stroke="#4a6a32" stroke-width="1.5"/><path d="M -20.9 0 Q 0 -5.0 20.9 0" stroke="#3d5a2e" stroke-width="1.0" fill="none" opacity="0.7"/><path d="M -13.2 -2.0 Q -6.6 -5.0 -1.1 -3.0" stroke="#3d5a2e" stroke-width="0.6" fill="none" opacity="0.5"/><path d="M 1.1 -3.0 Q 8.8 -6.0 15.399999999999999 -1.0" stroke="#3d5a2e" stroke-width="0.6" fill="none" opacity="0.5"/></g>
  <g transform="translate(298 240) rotate(17)"><ellipse cx="0" cy="0" rx="27" ry="12" fill="#94b574" stroke="#4a6a32" stroke-width="1.5"/><path d="M -25.65 0 Q 0 -6.0 25.65 0" stroke="#3d5a2e" stroke-width="1.0" fill="none" opacity="0.7"/><path d="M -16.2 -2.4000000000000004 Q -8.1 -6.0 -1.35 -3.5999999999999996" stroke="#3d5a2e" stroke-width="0.6" fill="none" opacity="0.5"/><path d="M 1.35 -3.5999999999999996 Q 10.8 -7.199999999999999 18.9 -1.2000000000000002" stroke="#3d5a2e" stroke-width="0.6" fill="none" opacity="0.5"/></g>
  <g transform="translate(432 150) rotate(58)"><ellipse cx="0" cy="0" rx="32" ry="10" fill="#7ea05c" stroke="#4a6a32" stroke-width="1.5"/><path d="M -30.4 0 Q 0 -5.0 30.4 0" stroke="#3d5a2e" stroke-width="1.0" fill="none" opacity="0.7"/><path d="M -19.2 -2.0 Q -9.6 -5.0 -1.6 -3.0" stroke="#3d5a2e" stroke-width="0.6" fill="none" opacity="0.5"/><path d="M 1.6 -3.0 Q 12.8 -6.0 22.4 -1.0" stroke="#3d5a2e" stroke-width="0.6" fill="none" opacity="0.5"/></g>
  <g transform="translate(458 70) rotate(-81)"><ellipse cx="0" cy="0" rx="22" ry="12" fill="#94b574" stroke="#4a6a32" stroke-width="1.5"/><path d="M -20.9 0 Q 0 -6.0 20.9 0" stroke="#3d5a2e" stroke-width="1.0" fill="none" opacity="0.7"/><path d="M -13.2 -2.4000000000000004 Q -6.6 -6.0 -1.1 -3.5999999999999996" stroke="#3d5a2e" stroke-width="0.6" fill="none" opacity="0.5"/><path d="M 1.1 -3.5999999999999996 Q 8.8 -7.199999999999999 15.399999999999999 -1.2000000000000002" stroke="#3d5a2e" stroke-width="0.6" fill="none" opacity="0.5"/></g>

    <g transform="translate(410 150) rotate(-25) scale(0.55)"><path d="M 0 14 Q -6 4 -3 -8 Q 0 -16 3 -8 Q 6 4 0 14 Z" fill="#fff5d8" stroke="#c89a44" stroke-width="1.1"/><path d="M 0 14 Q -6 4 -3 -8 Q 0 -16 3 -8 Q 6 4 0 14 Z" fill="#b88a3a" opacity="0.3" transform="translate(1.5 0)"/><path d="M -5 12 Q -8 0 -3 -10" stroke="#5e7e44" stroke-width="1.0" fill="none"/><path d="M 5 12 Q 8 0 3 -10" stroke="#5e7e44" stroke-width="1.0" fill="none"/></g>
  <g transform="translate(270 360) rotate(-8) scale(0.5)"><path d="M 0 14 Q -6 4 -3 -8 Q 0 -16 3 -8 Q 6 4 0 14 Z" fill="#fff5d8" stroke="#c89a44" stroke-width="1.1"/><path d="M 0 14 Q -6 4 -3 -8 Q 0 -16 3 -8 Q 6 4 0 14 Z" fill="#b88a3a" opacity="0.3" transform="translate(1.5 0)"/><path d="M -5 12 Q -8 0 -3 -10" stroke="#5e7e44" stroke-width="1.0" fill="none"/><path d="M 5 12 Q 8 0 3 -10" stroke="#5e7e44" stroke-width="1.0" fill="none"/></g>
  <g transform="translate(95 460) rotate(18) scale(0.5)"><path d="M 0 14 Q -6 4 -3 -8 Q 0 -16 3 -8 Q 6 4 0 14 Z" fill="#fff5d8" stroke="#c89a44" stroke-width="1.1"/><path d="M 0 14 Q -6 4 -3 -8 Q 0 -16 3 -8 Q 6 4 0 14 Z" fill="#b88a3a" opacity="0.3" transform="translate(1.5 0)"/><path d="M -5 12 Q -8 0 -3 -10" stroke="#5e7e44" stroke-width="1.0" fill="none"/><path d="M 5 12 Q 8 0 3 -10" stroke="#5e7e44" stroke-width="1.0" fill="none"/></g>
  <g transform="translate(320 240) rotate(-15) scale(0.5)"><path d="M 0 14 Q -6 4 -3 -8 Q 0 -16 3 -8 Q 6 4 0 14 Z" fill="#fff5d8" stroke="#c89a44" stroke-width="1.1"/><path d="M 0 14 Q -6 4 -3 -8 Q 0 -16 3 -8 Q 6 4 0 14 Z" fill="#b88a3a" opacity="0.3" transform="translate(1.5 0)"/><path d="M -5 12 Q -8 0 -3 -10" stroke="#5e7e44" stroke-width="1.0" fill="none"/><path d="M 5 12 Q 8 0 3 -10" stroke="#5e7e44" stroke-width="1.0" fill="none"/></g>
  <g transform="translate(180 1040) rotate(12) scale(0.5)"><path d="M 0 14 Q -6 4 -3 -8 Q 0 -16 3 -8 Q 6 4 0 14 Z" fill="#fff5d8" stroke="#c89a44" stroke-width="1.1"/><path d="M 0 14 Q -6 4 -3 -8 Q 0 -16 3 -8 Q 6 4 0 14 Z" fill="#b88a3a" opacity="0.3" transform="translate(1.5 0)"/><path d="M -5 12 Q -8 0 -3 -10" stroke="#5e7e44" stroke-width="1.0" fill="none"/><path d="M 5 12 Q 8 0 3 -10" stroke="#5e7e44" stroke-width="1.0" fill="none"/></g>

    <g transform="translate(520 110) rotate(15) scale(0.8571428571428571)">
<path d="M 0 0 Q -6.3 -10.2 0.0 -14.0 Q 6.3 -10.2 1.1 -3.3 Z" fill="#fff7fb" stroke="#f0c8d3" stroke-width="0.7"/>
<path d="M 0 0 Q 7.8 -9.1 13.3 -4.3 Q 11.7 2.8 3.5 0.0 Z" fill="#fff7fb" stroke="#f0c8d3" stroke-width="0.7"/>
<path d="M 0 0 Q 11.1 4.6 8.2 11.3 Q 0.9 12.0 1.1 3.3 Z" fill="#fff7fb" stroke="#f0c8d3" stroke-width="0.7"/>
<path d="M 0 0 Q -0.9 12.0 -8.2 11.3 Q -11.1 4.6 -2.8 2.1 Z" fill="#fff7fb" stroke="#f0c8d3" stroke-width="0.7"/>
<path d="M 0 0 Q -11.7 2.8 -13.3 -4.3 Q -7.8 -9.1 -2.8 -2.1 Z" fill="#fff7fb" stroke="#f0c8d3" stroke-width="0.7"/>
<circle cx="0" cy="0" r="1.8" fill="#f7c8b5"/>
</g>
  <g transform="translate(350 280) rotate(-25) scale(0.7142857142857143)">
<path d="M 0 0 Q -6.3 -10.2 0.0 -14.0 Q 6.3 -10.2 1.1 -3.3 Z" fill="#fff7fb" stroke="#f0c8d3" stroke-width="0.7"/>
<path d="M 0 0 Q 7.8 -9.1 13.3 -4.3 Q 11.7 2.8 3.5 0.0 Z" fill="#fff7fb" stroke="#f0c8d3" stroke-width="0.7"/>
<path d="M 0 0 Q 11.1 4.6 8.2 11.3 Q 0.9 12.0 1.1 3.3 Z" fill="#fff7fb" stroke="#f0c8d3" stroke-width="0.7"/>
<path d="M 0 0 Q -0.9 12.0 -8.2 11.3 Q -11.1 4.6 -2.8 2.1 Z" fill="#fff7fb" stroke="#f0c8d3" stroke-width="0.7"/>
<path d="M 0 0 Q -11.7 2.8 -13.3 -4.3 Q -7.8 -9.1 -2.8 -2.1 Z" fill="#fff7fb" stroke="#f0c8d3" stroke-width="0.7"/>
<circle cx="0" cy="0" r="1.8" fill="#f7c8b5"/>
</g>
  <g transform="translate(110 1010) rotate(30) scale(0.7857142857142857)">
<path d="M 0 0 Q -6.3 -10.2 0.0 -14.0 Q 6.3 -10.2 1.1 -3.3 Z" fill="#fff7fb" stroke="#f0c8d3" stroke-width="0.7"/>
<path d="M 0 0 Q 7.8 -9.1 13.3 -4.3 Q 11.7 2.8 3.5 0.0 Z" fill="#fff7fb" stroke="#f0c8d3" stroke-width="0.7"/>
<path d="M 0 0 Q 11.1 4.6 8.2 11.3 Q 0.9 12.0 1.1 3.3 Z" fill="#fff7fb" stroke="#f0c8d3" stroke-width="0.7"/>
<path d="M 0 0 Q -0.9 12.0 -8.2 11.3 Q -11.1 4.6 -2.8 2.1 Z" fill="#fff7fb" stroke="#f0c8d3" stroke-width="0.7"/>
<path d="M 0 0 Q -11.7 2.8 -13.3 -4.3 Q -7.8 -9.1 -2.8 -2.1 Z" fill="#fff7fb" stroke="#f0c8d3" stroke-width="0.7"/>
<circle cx="0" cy="0" r="1.8" fill="#f7c8b5"/>
</g>
  <g transform="translate(250 610) rotate(-10) scale(0.6428571428571429)">
<path d="M 0 0 Q -6.3 -10.2 0.0 -14.0 Q 6.3 -10.2 1.1 -3.3 Z" fill="#fff7fb" stroke="#f0c8d3" stroke-width="0.7"/>
<path d="M 0 0 Q 7.8 -9.1 13.3 -4.3 Q 11.7 2.8 3.5 0.0 Z" fill="#fff7fb" stroke="#f0c8d3" stroke-width="0.7"/>
<path d="M 0 0 Q 11.1 4.6 8.2 11.3 Q 0.9 12.0 1.1 3.3 Z" fill="#fff7fb" stroke="#f0c8d3" stroke-width="0.7"/>
<path d="M 0 0 Q -0.9 12.0 -8.2 11.3 Q -11.1 4.6 -2.8 2.1 Z" fill="#fff7fb" stroke="#f0c8d3" stroke-width="0.7"/>
<path d="M 0 0 Q -11.7 2.8 -13.3 -4.3 Q -7.8 -9.1 -2.8 -2.1 Z" fill="#fff7fb" stroke="#f0c8d3" stroke-width="0.7"/>
<circle cx="0" cy="0" r="1.8" fill="#f7c8b5"/>
</g>
  <g transform="translate(430 180) rotate(50) scale(0.7142857142857143)">
<path d="M 0 0 Q -6.3 -10.2 0.0 -14.0 Q 6.3 -10.2 1.1 -3.3 Z" fill="#fff7fb" stroke="#f0c8d3" stroke-width="0.7"/>
<path d="M 0 0 Q 7.8 -9.1 13.3 -4.3 Q 11.7 2.8 3.5 0.0 Z" fill="#fff7fb" stroke="#f0c8d3" stroke-width="0.7"/>
<path d="M 0 0 Q 11.1 4.6 8.2 11.3 Q 0.9 12.0 1.1 3.3 Z" fill="#fff7fb" stroke="#f0c8d3" stroke-width="0.7"/>
<path d="M 0 0 Q -0.9 12.0 -8.2 11.3 Q -11.1 4.6 -2.8 2.1 Z" fill="#fff7fb" stroke="#f0c8d3" stroke-width="0.7"/>
<path d="M 0 0 Q -11.7 2.8 -13.3 -4.3 Q -7.8 -9.1 -2.8 -2.1 Z" fill="#fff7fb" stroke="#f0c8d3" stroke-width="0.7"/>
<circle cx="0" cy="0" r="1.8" fill="#f7c8b5"/>
</g>
  <g transform="translate(70 360) rotate(-30) scale(0.5714285714285714)">
<path d="M 0 0 Q -6.3 -10.2 0.0 -14.0 Q 6.3 -10.2 1.1 -3.3 Z" fill="#fff7fb" stroke="#f0c8d3" stroke-width="0.7"/>
<path d="M 0 0 Q 7.8 -9.1 13.3 -4.3 Q 11.7 2.8 3.5 0.0 Z" fill="#fff7fb" stroke="#f0c8d3" stroke-width="0.7"/>
<path d="M 0 0 Q 11.1 4.6 8.2 11.3 Q 0.9 12.0 1.1 3.3 Z" fill="#fff7fb" stroke="#f0c8d3" stroke-width="0.7"/>
<path d="M 0 0 Q -0.9 12.0 -8.2 11.3 Q -11.1 4.6 -2.8 2.1 Z" fill="#fff7fb" stroke="#f0c8d3" stroke-width="0.7"/>
<path d="M 0 0 Q -11.7 2.8 -13.3 -4.3 Q -7.8 -9.1 -2.8 -2.1 Z" fill="#fff7fb" stroke="#f0c8d3" stroke-width="0.7"/>
<circle cx="0" cy="0" r="1.8" fill="#f7c8b5"/>
</g>
  <g transform="translate(180 350) rotate(25) scale(0.6428571428571429)">
<path d="M 0 0 Q -6.3 -10.2 0.0 -14.0 Q 6.3 -10.2 1.1 -3.3 Z" fill="#fff7fb" stroke="#f0c8d3" stroke-width="0.7"/>
<path d="M 0 0 Q 7.8 -9.1 13.3 -4.3 Q 11.7 2.8 3.5 0.0 Z" fill="#fff7fb" stroke="#f0c8d3" stroke-width="0.7"/>
<path d="M 0 0 Q 11.1 4.6 8.2 11.3 Q 0.9 12.0 1.1 3.3 Z" fill="#fff7fb" stroke="#f0c8d3" stroke-width="0.7"/>
<path d="M 0 0 Q -0.9 12.0 -8.2 11.3 Q -11.1 4.6 -2.8 2.1 Z" fill="#fff7fb" stroke="#f0c8d3" stroke-width="0.7"/>
<path d="M 0 0 Q -11.7 2.8 -13.3 -4.3 Q -7.8 -9.1 -2.8 -2.1 Z" fill="#fff7fb" stroke="#f0c8d3" stroke-width="0.7"/>
<circle cx="0" cy="0" r="1.8" fill="#f7c8b5"/>
</g>
  <g transform="translate(550 110) rotate(-50) scale(0.5714285714285714)">
<path d="M 0 0 Q -6.3 -10.2 0.0 -14.0 Q 6.3 -10.2 1.1 -3.3 Z" fill="#fff7fb" stroke="#f0c8d3" stroke-width="0.7"/>
<path d="M 0 0 Q 7.8 -9.1 13.3 -4.3 Q 11.7 2.8 3.5 0.0 Z" fill="#fff7fb" stroke="#f0c8d3" stroke-width="0.7"/>
<path d="M 0 0 Q 11.1 4.6 8.2 11.3 Q 0.9 12.0 1.1 3.3 Z" fill="#fff7fb" stroke="#f0c8d3" stroke-width="0.7"/>
<path d="M 0 0 Q -0.9 12.0 -8.2 11.3 Q -11.1 4.6 -2.8 2.1 Z" fill="#fff7fb" stroke="#f0c8d3" stroke-width="0.7"/>
<path d="M 0 0 Q -11.7 2.8 -13.3 -4.3 Q -7.8 -9.1 -2.8 -2.1 Z" fill="#fff7fb" stroke="#f0c8d3" stroke-width="0.7"/>
<circle cx="0" cy="0" r="1.8" fill="#f7c8b5"/>
</g>

    <g transform="translate(480 70) rotate(-10) scale(1.05)">
<path d="M 0 0 Q 6.6 -22.8 11.0 -38.0 Q 0.0 -44.0 0.0 -39.6 Q -11.0 -38.0 -6.6 -22.8 0 0 Z" fill="#b88a3a" opacity="0.4"/>
<path d="M 0 0 Q 7.2 -24.7 9.9 -34.2 Q 0.0 -44.0 -9.9 -34.2 Q -7.1 -24.7 0 0 Z" fill="#fff5d8" stroke="#d9a13a" stroke-width="1.4"/>
<path d="M 0 0 L 0.0 -37.4" stroke="#b88a3a" stroke-width="0.7" fill="none" opacity="0.55"/>
<path d="M 0 0 Q 23.0 -5.7 38.4 -9.5 Q 38.1 -22.0 34.3 -19.8 Q 27.4 -28.5 16.4 -17.1 0 0 Z" fill="#b88a3a" opacity="0.4"/>
<path d="M 0 0 Q 25.0 -6.2 34.6 -8.5 Q 38.1 -22.0 24.7 -25.7 Q 17.8 -18.5 0 0 Z" fill="#fff5d8" stroke="#d9a13a" stroke-width="1.4"/>
<path d="M 0 0 L 32.4 -18.7" stroke="#b88a3a" stroke-width="0.7" fill="none" opacity="0.55"/>
<path d="M 0 0 Q 16.4 17.1 27.4 28.5 Q 38.1 22.0 34.3 19.8 Q 38.4 9.5 23.0 5.7 0 0 Z" fill="#b88a3a" opacity="0.4"/>
<path d="M 0 0 Q 17.8 18.5 24.7 25.7 Q 38.1 22.0 34.6 8.5 Q 25.0 6.2 0 0 Z" fill="#fff5d8" stroke="#d9a13a" stroke-width="1.4"/>
<path d="M 0 0 L 32.4 18.7" stroke="#b88a3a" stroke-width="0.7" fill="none" opacity="0.55"/>
<path d="M 0 0 Q -6.6 22.8 -11.0 38.0 Q 0.0 44.0 0.0 39.6 Q 11.0 38.0 6.6 22.8 0 0 Z" fill="#b88a3a" opacity="0.4"/>
<path d="M 0 0 Q -7.1 24.7 -9.9 34.2 Q 0.0 44.0 9.9 34.2 Q 7.2 24.7 0 0 Z" fill="#fff5d8" stroke="#d9a13a" stroke-width="1.4"/>
<path d="M 0 0 L 0.0 37.4" stroke="#b88a3a" stroke-width="0.7" fill="none" opacity="0.55"/>
<path d="M 0 0 Q -23.0 5.7 -38.4 9.5 Q -38.1 22.0 -34.3 19.8 Q -27.4 28.5 -16.4 17.1 0 0 Z" fill="#b88a3a" opacity="0.4"/>
<path d="M 0 0 Q -25.0 6.2 -34.6 8.5 Q -38.1 22.0 -24.7 25.7 Q -17.8 18.5 0 0 Z" fill="#fff5d8" stroke="#d9a13a" stroke-width="1.4"/>
<path d="M 0 0 L -32.4 18.7" stroke="#b88a3a" stroke-width="0.7" fill="none" opacity="0.55"/>
<path d="M 0 0 Q -16.4 -17.1 -27.4 -28.5 Q -38.1 -22.0 -34.3 -19.8 Q -38.4 -9.5 -23.0 -5.7 0 0 Z" fill="#b88a3a" opacity="0.4"/>
<path d="M 0 0 Q -17.8 -18.5 -24.7 -25.7 Q -38.1 -22.0 -34.6 -8.5 Q -25.0 -6.2 0 0 Z" fill="#fff5d8" stroke="#d9a13a" stroke-width="1.4"/>
<path d="M 0 0 L -32.4 -18.7" stroke="#b88a3a" stroke-width="0.7" fill="none" opacity="0.55"/>
<circle cx="0" cy="0" r="5.5" fill="#8a5a14" stroke="#5a3a08" stroke-width="0.8"/>
<circle cx="0" cy="0" r="3" fill="#c8902a"/>
<line x1="0" y1="0" x2="3.9" y2="-21.6" stroke="#7a4e10" stroke-width="1.4" stroke-linecap="round"/>
<ellipse cx="3.9" cy="-21.6" rx="2.6" ry="1.8" fill="#d9a13a" stroke="#7a4e10" stroke-width="0.5"/>
<line x1="0" y1="0" x2="20.7" y2="-7.4" stroke="#7a4e10" stroke-width="1.4" stroke-linecap="round"/>
<ellipse cx="20.7" cy="-7.4" rx="2.6" ry="1.8" fill="#d9a13a" stroke="#7a4e10" stroke-width="0.5"/>
<line x1="0" y1="0" x2="16.8" y2="14.2" stroke="#7a4e10" stroke-width="1.4" stroke-linecap="round"/>
<ellipse cx="16.8" cy="14.2" rx="2.6" ry="1.8" fill="#d9a13a" stroke="#7a4e10" stroke-width="0.5"/>
<line x1="0" y1="0" x2="-3.9" y2="21.6" stroke="#7a4e10" stroke-width="1.4" stroke-linecap="round"/>
<ellipse cx="-3.9" cy="21.6" rx="2.6" ry="1.8" fill="#d9a13a" stroke="#7a4e10" stroke-width="0.5"/>
<line x1="0" y1="0" x2="-20.7" y2="7.4" stroke="#7a4e10" stroke-width="1.4" stroke-linecap="round"/>
<ellipse cx="-20.7" cy="7.4" rx="2.6" ry="1.8" fill="#d9a13a" stroke="#7a4e10" stroke-width="0.5"/>
<line x1="0" y1="0" x2="-16.8" y2="-14.2" stroke="#7a4e10" stroke-width="1.4" stroke-linecap="round"/>
<ellipse cx="-16.8" cy="-14.2" rx="2.6" ry="1.8" fill="#d9a13a" stroke="#7a4e10" stroke-width="0.5"/>
</g>
  <g transform="translate(210 480) rotate(18) scale(0.85)">
<path d="M 0 0 Q 6.6 -22.8 11.0 -38.0 Q 0.0 -44.0 0.0 -39.6 Q -11.0 -38.0 -6.6 -22.8 0 0 Z" fill="#b88a3a" opacity="0.4"/>
<path d="M 0 0 Q 7.2 -24.7 9.9 -34.2 Q 0.0 -44.0 -9.9 -34.2 Q -7.1 -24.7 0 0 Z" fill="#fff5d8" stroke="#d9a13a" stroke-width="1.4"/>
<path d="M 0 0 L 0.0 -37.4" stroke="#b88a3a" stroke-width="0.7" fill="none" opacity="0.55"/>
<path d="M 0 0 Q 23.0 -5.7 38.4 -9.5 Q 38.1 -22.0 34.3 -19.8 Q 27.4 -28.5 16.4 -17.1 0 0 Z" fill="#b88a3a" opacity="0.4"/>
<path d="M 0 0 Q 25.0 -6.2 34.6 -8.5 Q 38.1 -22.0 24.7 -25.7 Q 17.8 -18.5 0 0 Z" fill="#fff5d8" stroke="#d9a13a" stroke-width="1.4"/>
<path d="M 0 0 L 32.4 -18.7" stroke="#b88a3a" stroke-width="0.7" fill="none" opacity="0.55"/>
<path d="M 0 0 Q 16.4 17.1 27.4 28.5 Q 38.1 22.0 34.3 19.8 Q 38.4 9.5 23.0 5.7 0 0 Z" fill="#b88a3a" opacity="0.4"/>
<path d="M 0 0 Q 17.8 18.5 24.7 25.7 Q 38.1 22.0 34.6 8.5 Q 25.0 6.2 0 0 Z" fill="#fff5d8" stroke="#d9a13a" stroke-width="1.4"/>
<path d="M 0 0 L 32.4 18.7" stroke="#b88a3a" stroke-width="0.7" fill="none" opacity="0.55"/>
<path d="M 0 0 Q -6.6 22.8 -11.0 38.0 Q 0.0 44.0 0.0 39.6 Q 11.0 38.0 6.6 22.8 0 0 Z" fill="#b88a3a" opacity="0.4"/>
<path d="M 0 0 Q -7.1 24.7 -9.9 34.2 Q 0.0 44.0 9.9 34.2 Q 7.2 24.7 0 0 Z" fill="#fff5d8" stroke="#d9a13a" stroke-width="1.4"/>
<path d="M 0 0 L 0.0 37.4" stroke="#b88a3a" stroke-width="0.7" fill="none" opacity="0.55"/>
<path d="M 0 0 Q -23.0 5.7 -38.4 9.5 Q -38.1 22.0 -34.3 19.8 Q -27.4 28.5 -16.4 17.1 0 0 Z" fill="#b88a3a" opacity="0.4"/>
<path d="M 0 0 Q -25.0 6.2 -34.6 8.5 Q -38.1 22.0 -24.7 25.7 Q -17.8 18.5 0 0 Z" fill="#fff5d8" stroke="#d9a13a" stroke-width="1.4"/>
<path d="M 0 0 L -32.4 18.7" stroke="#b88a3a" stroke-width="0.7" fill="none" opacity="0.55"/>
<path d="M 0 0 Q -16.4 -17.1 -27.4 -28.5 Q -38.1 -22.0 -34.3 -19.8 Q -38.4 -9.5 -23.0 -5.7 0 0 Z" fill="#b88a3a" opacity="0.4"/>
<path d="M 0 0 Q -17.8 -18.5 -24.7 -25.7 Q -38.1 -22.0 -34.6 -8.5 Q -25.0 -6.2 0 0 Z" fill="#fff5d8" stroke="#d9a13a" stroke-width="1.4"/>
<path d="M 0 0 L -32.4 -18.7" stroke="#b88a3a" stroke-width="0.7" fill="none" opacity="0.55"/>
<circle cx="0" cy="0" r="5.5" fill="#8a5a14" stroke="#5a3a08" stroke-width="0.8"/>
<circle cx="0" cy="0" r="3" fill="#c8902a"/>
<line x1="0" y1="0" x2="3.9" y2="-21.6" stroke="#7a4e10" stroke-width="1.4" stroke-linecap="round"/>
<ellipse cx="3.9" cy="-21.6" rx="2.6" ry="1.8" fill="#d9a13a" stroke="#7a4e10" stroke-width="0.5"/>
<line x1="0" y1="0" x2="20.7" y2="-7.4" stroke="#7a4e10" stroke-width="1.4" stroke-linecap="round"/>
<ellipse cx="20.7" cy="-7.4" rx="2.6" ry="1.8" fill="#d9a13a" stroke="#7a4e10" stroke-width="0.5"/>
<line x1="0" y1="0" x2="16.8" y2="14.2" stroke="#7a4e10" stroke-width="1.4" stroke-linecap="round"/>
<ellipse cx="16.8" cy="14.2" rx="2.6" ry="1.8" fill="#d9a13a" stroke="#7a4e10" stroke-width="0.5"/>
<line x1="0" y1="0" x2="-3.9" y2="21.6" stroke="#7a4e10" stroke-width="1.4" stroke-linecap="round"/>
<ellipse cx="-3.9" cy="21.6" rx="2.6" ry="1.8" fill="#d9a13a" stroke="#7a4e10" stroke-width="0.5"/>
<line x1="0" y1="0" x2="-20.7" y2="7.4" stroke="#7a4e10" stroke-width="1.4" stroke-linecap="round"/>
<ellipse cx="-20.7" cy="7.4" rx="2.6" ry="1.8" fill="#d9a13a" stroke="#7a4e10" stroke-width="0.5"/>
<line x1="0" y1="0" x2="-16.8" y2="-14.2" stroke="#7a4e10" stroke-width="1.4" stroke-linecap="round"/>
<ellipse cx="-16.8" cy="-14.2" rx="2.6" ry="1.8" fill="#d9a13a" stroke="#7a4e10" stroke-width="0.5"/>
</g>
  <g transform="translate(300 730) rotate(-10) scale(0.95)">
<path d="M 0 0 Q 6.6 -22.8 11.0 -38.0 Q 0.0 -44.0 0.0 -39.6 Q -11.0 -38.0 -6.6 -22.8 0 0 Z" fill="#b88a3a" opacity="0.4"/>
<path d="M 0 0 Q 7.2 -24.7 9.9 -34.2 Q 0.0 -44.0 -9.9 -34.2 Q -7.1 -24.7 0 0 Z" fill="#fff5d8" stroke="#d9a13a" stroke-width="1.4"/>
<path d="M 0 0 L 0.0 -37.4" stroke="#b88a3a" stroke-width="0.7" fill="none" opacity="0.55"/>
<path d="M 0 0 Q 23.0 -5.7 38.4 -9.5 Q 38.1 -22.0 34.3 -19.8 Q 27.4 -28.5 16.4 -17.1 0 0 Z" fill="#b88a3a" opacity="0.4"/>
<path d="M 0 0 Q 25.0 -6.2 34.6 -8.5 Q 38.1 -22.0 24.7 -25.7 Q 17.8 -18.5 0 0 Z" fill="#fff5d8" stroke="#d9a13a" stroke-width="1.4"/>
<path d="M 0 0 L 32.4 -18.7" stroke="#b88a3a" stroke-width="0.7" fill="none" opacity="0.55"/>
<path d="M 0 0 Q 16.4 17.1 27.4 28.5 Q 38.1 22.0 34.3 19.8 Q 38.4 9.5 23.0 5.7 0 0 Z" fill="#b88a3a" opacity="0.4"/>
<path d="M 0 0 Q 17.8 18.5 24.7 25.7 Q 38.1 22.0 34.6 8.5 Q 25.0 6.2 0 0 Z" fill="#fff5d8" stroke="#d9a13a" stroke-width="1.4"/>
<path d="M 0 0 L 32.4 18.7" stroke="#b88a3a" stroke-width="0.7" fill="none" opacity="0.55"/>
<path d="M 0 0 Q -6.6 22.8 -11.0 38.0 Q 0.0 44.0 0.0 39.6 Q 11.0 38.0 6.6 22.8 0 0 Z" fill="#b88a3a" opacity="0.4"/>
<path d="M 0 0 Q -7.1 24.7 -9.9 34.2 Q 0.0 44.0 9.9 34.2 Q 7.2 24.7 0 0 Z" fill="#fff5d8" stroke="#d9a13a" stroke-width="1.4"/>
<path d="M 0 0 L 0.0 37.4" stroke="#b88a3a" stroke-width="0.7" fill="none" opacity="0.55"/>
<path d="M 0 0 Q -23.0 5.7 -38.4 9.5 Q -38.1 22.0 -34.3 19.8 Q -27.4 28.5 -16.4 17.1 0 0 Z" fill="#b88a3a" opacity="0.4"/>
<path d="M 0 0 Q -25.0 6.2 -34.6 8.5 Q -38.1 22.0 -24.7 25.7 Q -17.8 18.5 0 0 Z" fill="#fff5d8" stroke="#d9a13a" stroke-width="1.4"/>
<path d="M 0 0 L -32.4 18.7" stroke="#b88a3a" stroke-width="0.7" fill="none" opacity="0.55"/>
<path d="M 0 0 Q -16.4 -17.1 -27.4 -28.5 Q -38.1 -22.0 -34.3 -19.8 Q -38.4 -9.5 -23.0 -5.7 0 0 Z" fill="#b88a3a" opacity="0.4"/>
<path d="M 0 0 Q -17.8 -18.5 -24.7 -25.7 Q -38.1 -22.0 -34.6 -8.5 Q -25.0 -6.2 0 0 Z" fill="#fff5d8" stroke="#d9a13a" stroke-width="1.4"/>
<path d="M 0 0 L -32.4 -18.7" stroke="#b88a3a" stroke-width="0.7" fill="none" opacity="0.55"/>
<circle cx="0" cy="0" r="5.5" fill="#8a5a14" stroke="#5a3a08" stroke-width="0.8"/>
<circle cx="0" cy="0" r="3" fill="#c8902a"/>
<line x1="0" y1="0" x2="3.9" y2="-21.6" stroke="#7a4e10" stroke-width="1.4" stroke-linecap="round"/>
<ellipse cx="3.9" cy="-21.6" rx="2.6" ry="1.8" fill="#d9a13a" stroke="#7a4e10" stroke-width="0.5"/>
<line x1="0" y1="0" x2="20.7" y2="-7.4" stroke="#7a4e10" stroke-width="1.4" stroke-linecap="round"/>
<ellipse cx="20.7" cy="-7.4" rx="2.6" ry="1.8" fill="#d9a13a" stroke="#7a4e10" stroke-width="0.5"/>
<line x1="0" y1="0" x2="16.8" y2="14.2" stroke="#7a4e10" stroke-width="1.4" stroke-linecap="round"/>
<ellipse cx="16.8" cy="14.2" rx="2.6" ry="1.8" fill="#d9a13a" stroke="#7a4e10" stroke-width="0.5"/>
<line x1="0" y1="0" x2="-3.9" y2="21.6" stroke="#7a4e10" stroke-width="1.4" stroke-linecap="round"/>
<ellipse cx="-3.9" cy="21.6" rx="2.6" ry="1.8" fill="#d9a13a" stroke="#7a4e10" stroke-width="0.5"/>
<line x1="0" y1="0" x2="-20.7" y2="7.4" stroke="#7a4e10" stroke-width="1.4" stroke-linecap="round"/>
<ellipse cx="-20.7" cy="7.4" rx="2.6" ry="1.8" fill="#d9a13a" stroke="#7a4e10" stroke-width="0.5"/>
<line x1="0" y1="0" x2="-16.8" y2="-14.2" stroke="#7a4e10" stroke-width="1.4" stroke-linecap="round"/>
<ellipse cx="-16.8" cy="-14.2" rx="2.6" ry="1.8" fill="#d9a13a" stroke="#7a4e10" stroke-width="0.5"/>
</g>
  <g transform="translate(160 920) rotate(28) scale(0.78)">
<path d="M 0 0 Q 6.6 -22.8 11.0 -38.0 Q 0.0 -44.0 0.0 -39.6 Q -11.0 -38.0 -6.6 -22.8 0 0 Z" fill="#b88a3a" opacity="0.4"/>
<path d="M 0 0 Q 7.2 -24.7 9.9 -34.2 Q 0.0 -44.0 -9.9 -34.2 Q -7.1 -24.7 0 0 Z" fill="#fff5d8" stroke="#d9a13a" stroke-width="1.4"/>
<path d="M 0 0 L 0.0 -37.4" stroke="#b88a3a" stroke-width="0.7" fill="none" opacity="0.55"/>
<path d="M 0 0 Q 23.0 -5.7 38.4 -9.5 Q 38.1 -22.0 34.3 -19.8 Q 27.4 -28.5 16.4 -17.1 0 0 Z" fill="#b88a3a" opacity="0.4"/>
<path d="M 0 0 Q 25.0 -6.2 34.6 -8.5 Q 38.1 -22.0 24.7 -25.7 Q 17.8 -18.5 0 0 Z" fill="#fff5d8" stroke="#d9a13a" stroke-width="1.4"/>
<path d="M 0 0 L 32.4 -18.7" stroke="#b88a3a" stroke-width="0.7" fill="none" opacity="0.55"/>
<path d="M 0 0 Q 16.4 17.1 27.4 28.5 Q 38.1 22.0 34.3 19.8 Q 38.4 9.5 23.0 5.7 0 0 Z" fill="#b88a3a" opacity="0.4"/>
<path d="M 0 0 Q 17.8 18.5 24.7 25.7 Q 38.1 22.0 34.6 8.5 Q 25.0 6.2 0 0 Z" fill="#fff5d8" stroke="#d9a13a" stroke-width="1.4"/>
<path d="M 0 0 L 32.4 18.7" stroke="#b88a3a" stroke-width="0.7" fill="none" opacity="0.55"/>
<path d="M 0 0 Q -6.6 22.8 -11.0 38.0 Q 0.0 44.0 0.0 39.6 Q 11.0 38.0 6.6 22.8 0 0 Z" fill="#b88a3a" opacity="0.4"/>
<path d="M 0 0 Q -7.1 24.7 -9.9 34.2 Q 0.0 44.0 9.9 34.2 Q 7.2 24.7 0 0 Z" fill="#fff5d8" stroke="#d9a13a" stroke-width="1.4"/>
<path d="M 0 0 L 0.0 37.4" stroke="#b88a3a" stroke-width="0.7" fill="none" opacity="0.55"/>
<path d="M 0 0 Q -23.0 5.7 -38.4 9.5 Q -38.1 22.0 -34.3 19.8 Q -27.4 28.5 -16.4 17.1 0 0 Z" fill="#b88a3a" opacity="0.4"/>
<path d="M 0 0 Q -25.0 6.2 -34.6 8.5 Q -38.1 22.0 -24.7 25.7 Q -17.8 18.5 0 0 Z" fill="#fff5d8" stroke="#d9a13a" stroke-width="1.4"/>
<path d="M 0 0 L -32.4 18.7" stroke="#b88a3a" stroke-width="0.7" fill="none" opacity="0.55"/>
<path d="M 0 0 Q -16.4 -17.1 -27.4 -28.5 Q -38.1 -22.0 -34.3 -19.8 Q -38.4 -9.5 -23.0 -5.7 0 0 Z" fill="#b88a3a" opacity="0.4"/>
<path d="M 0 0 Q -17.8 -18.5 -24.7 -25.7 Q -38.1 -22.0 -34.6 -8.5 Q -25.0 -6.2 0 0 Z" fill="#fff5d8" stroke="#d9a13a" stroke-width="1.4"/>
<path d="M 0 0 L -32.4 -18.7" stroke="#b88a3a" stroke-width="0.7" fill="none" opacity="0.55"/>
<circle cx="0" cy="0" r="5.5" fill="#8a5a14" stroke="#5a3a08" stroke-width="0.8"/>
<circle cx="0" cy="0" r="3" fill="#c8902a"/>
<line x1="0" y1="0" x2="3.9" y2="-21.6" stroke="#7a4e10" stroke-width="1.4" stroke-linecap="round"/>
<ellipse cx="3.9" cy="-21.6" rx="2.6" ry="1.8" fill="#d9a13a" stroke="#7a4e10" stroke-width="0.5"/>
<line x1="0" y1="0" x2="20.7" y2="-7.4" stroke="#7a4e10" stroke-width="1.4" stroke-linecap="round"/>
<ellipse cx="20.7" cy="-7.4" rx="2.6" ry="1.8" fill="#d9a13a" stroke="#7a4e10" stroke-width="0.5"/>
<line x1="0" y1="0" x2="16.8" y2="14.2" stroke="#7a4e10" stroke-width="1.4" stroke-linecap="round"/>
<ellipse cx="16.8" cy="14.2" rx="2.6" ry="1.8" fill="#d9a13a" stroke="#7a4e10" stroke-width="0.5"/>
<line x1="0" y1="0" x2="-3.9" y2="21.6" stroke="#7a4e10" stroke-width="1.4" stroke-linecap="round"/>
<ellipse cx="-3.9" cy="21.6" rx="2.6" ry="1.8" fill="#d9a13a" stroke="#7a4e10" stroke-width="0.5"/>
<line x1="0" y1="0" x2="-20.7" y2="7.4" stroke="#7a4e10" stroke-width="1.4" stroke-linecap="round"/>
<ellipse cx="-20.7" cy="7.4" rx="2.6" ry="1.8" fill="#d9a13a" stroke="#7a4e10" stroke-width="0.5"/>
<line x1="0" y1="0" x2="-16.8" y2="-14.2" stroke="#7a4e10" stroke-width="1.4" stroke-linecap="round"/>
<ellipse cx="-16.8" cy="-14.2" rx="2.6" ry="1.8" fill="#d9a13a" stroke="#7a4e10" stroke-width="0.5"/>
</g>
  <g transform="translate(75 920) rotate(-8) scale(0.72)">
<path d="M 0 0 Q 6.6 -22.8 11.0 -38.0 Q 0.0 -44.0 0.0 -39.6 Q -11.0 -38.0 -6.6 -22.8 0 0 Z" fill="#b88a3a" opacity="0.4"/>
<path d="M 0 0 Q 7.2 -24.7 9.9 -34.2 Q 0.0 -44.0 -9.9 -34.2 Q -7.1 -24.7 0 0 Z" fill="#fff5d8" stroke="#d9a13a" stroke-width="1.4"/>
<path d="M 0 0 L 0.0 -37.4" stroke="#b88a3a" stroke-width="0.7" fill="none" opacity="0.55"/>
<path d="M 0 0 Q 23.0 -5.7 38.4 -9.5 Q 38.1 -22.0 34.3 -19.8 Q 27.4 -28.5 16.4 -17.1 0 0 Z" fill="#b88a3a" opacity="0.4"/>
<path d="M 0 0 Q 25.0 -6.2 34.6 -8.5 Q 38.1 -22.0 24.7 -25.7 Q 17.8 -18.5 0 0 Z" fill="#fff5d8" stroke="#d9a13a" stroke-width="1.4"/>
<path d="M 0 0 L 32.4 -18.7" stroke="#b88a3a" stroke-width="0.7" fill="none" opacity="0.55"/>
<path d="M 0 0 Q 16.4 17.1 27.4 28.5 Q 38.1 22.0 34.3 19.8 Q 38.4 9.5 23.0 5.7 0 0 Z" fill="#b88a3a" opacity="0.4"/>
<path d="M 0 0 Q 17.8 18.5 24.7 25.7 Q 38.1 22.0 34.6 8.5 Q 25.0 6.2 0 0 Z" fill="#fff5d8" stroke="#d9a13a" stroke-width="1.4"/>
<path d="M 0 0 L 32.4 18.7" stroke="#b88a3a" stroke-width="0.7" fill="none" opacity="0.55"/>
<path d="M 0 0 Q -6.6 22.8 -11.0 38.0 Q 0.0 44.0 0.0 39.6 Q 11.0 38.0 6.6 22.8 0 0 Z" fill="#b88a3a" opacity="0.4"/>
<path d="M 0 0 Q -7.1 24.7 -9.9 34.2 Q 0.0 44.0 9.9 34.2 Q 7.2 24.7 0 0 Z" fill="#fff5d8" stroke="#d9a13a" stroke-width="1.4"/>
<path d="M 0 0 L 0.0 37.4" stroke="#b88a3a" stroke-width="0.7" fill="none" opacity="0.55"/>
<path d="M 0 0 Q -23.0 5.7 -38.4 9.5 Q -38.1 22.0 -34.3 19.8 Q -27.4 28.5 -16.4 17.1 0 0 Z" fill="#b88a3a" opacity="0.4"/>
<path d="M 0 0 Q -25.0 6.2 -34.6 8.5 Q -38.1 22.0 -24.7 25.7 Q -17.8 18.5 0 0 Z" fill="#fff5d8" stroke="#d9a13a" stroke-width="1.4"/>
<path d="M 0 0 L -32.4 18.7" stroke="#b88a3a" stroke-width="0.7" fill="none" opacity="0.55"/>
<path d="M 0 0 Q -16.4 -17.1 -27.4 -28.5 Q -38.1 -22.0 -34.3 -19.8 Q -38.4 -9.5 -23.0 -5.7 0 0 Z" fill="#b88a3a" opacity="0.4"/>
<path d="M 0 0 Q -17.8 -18.5 -24.7 -25.7 Q -38.1 -22.0 -34.6 -8.5 Q -25.0 -6.2 0 0 Z" fill="#fff5d8" stroke="#d9a13a" stroke-width="1.4"/>
<path d="M 0 0 L -32.4 -18.7" stroke="#b88a3a" stroke-width="0.7" fill="none" opacity="0.55"/>
<circle cx="0" cy="0" r="5.5" fill="#8a5a14" stroke="#5a3a08" stroke-width="0.8"/>
<circle cx="0" cy="0" r="3" fill="#c8902a"/>
<line x1="0" y1="0" x2="3.9" y2="-21.6" stroke="#7a4e10" stroke-width="1.4" stroke-linecap="round"/>
<ellipse cx="3.9" cy="-21.6" rx="2.6" ry="1.8" fill="#d9a13a" stroke="#7a4e10" stroke-width="0.5"/>
<line x1="0" y1="0" x2="20.7" y2="-7.4" stroke="#7a4e10" stroke-width="1.4" stroke-linecap="round"/>
<ellipse cx="20.7" cy="-7.4" rx="2.6" ry="1.8" fill="#d9a13a" stroke="#7a4e10" stroke-width="0.5"/>
<line x1="0" y1="0" x2="16.8" y2="14.2" stroke="#7a4e10" stroke-width="1.4" stroke-linecap="round"/>
<ellipse cx="16.8" cy="14.2" rx="2.6" ry="1.8" fill="#d9a13a" stroke="#7a4e10" stroke-width="0.5"/>
<line x1="0" y1="0" x2="-3.9" y2="21.6" stroke="#7a4e10" stroke-width="1.4" stroke-linecap="round"/>
<ellipse cx="-3.9" cy="21.6" rx="2.6" ry="1.8" fill="#d9a13a" stroke="#7a4e10" stroke-width="0.5"/>
<line x1="0" y1="0" x2="-20.7" y2="7.4" stroke="#7a4e10" stroke-width="1.4" stroke-linecap="round"/>
<ellipse cx="-20.7" cy="7.4" rx="2.6" ry="1.8" fill="#d9a13a" stroke="#7a4e10" stroke-width="0.5"/>
<line x1="0" y1="0" x2="-16.8" y2="-14.2" stroke="#7a4e10" stroke-width="1.4" stroke-linecap="round"/>
<ellipse cx="-16.8" cy="-14.2" rx="2.6" ry="1.8" fill="#d9a13a" stroke="#7a4e10" stroke-width="0.5"/>
</g>

    <path transform="translate(450 380) rotate(30)" d="M 0 0 Q -4.8999999999999995 -2.8000000000000003 -7 0 Q -4.8999999999999995 2.8000000000000003 0 0 Z" fill="#fff7fb" opacity="0.75" stroke="#e8c8d3" stroke-width="0.4"/>
  <path transform="translate(350 880) rotate(-20)" d="M 0 0 Q -4.199999999999999 -2.4000000000000004 -6 0 Q -4.199999999999999 2.4000000000000004 0 0 Z" fill="#fff7fb" opacity="0.75" stroke="#e8c8d3" stroke-width="0.4"/>
  <path transform="translate(500 700) rotate(70)" d="M 0 0 Q -3.5 -2.0 -5 0 Q -3.5 2.0 0 0 Z" fill="#fff7fb" opacity="0.75" stroke="#e8c8d3" stroke-width="0.4"/>
  <path transform="translate(200 200) rotate(45)" d="M 0 0 Q -4.199999999999999 -2.4000000000000004 -6 0 Q -4.199999999999999 2.4000000000000004 0 0 Z" fill="#fff7fb" opacity="0.75" stroke="#e8c8d3" stroke-width="0.4"/>
</svg>